# xmcd
#
# Track frame offsets:
#	150
#	25980
#	41895
#	59165
#	79472
#	97305
#	123117
#	144542
#	168102
#
# Disc length: 2536 seconds
#
# Revision: 1
# Processed by: cddbd v1.4PL0 Copyright (c) Steve Scherf et al.
# Submitted via: CDmax 1.8
#
DISCID=8209e609
DTITLE=Engerling - So oder So
DYEAR=1989
DGENRE=Blues
TTITLE0=Frühprogramm
TTITLE1=Pfeif drauf
TTITLE2=Moll's Party
TTITLE3=Nr. 48
TTITLE4=Hat nichts gebracht
TTITLE5=Narkose Blues
TTITLE6=So oder So
TTITLE7=Die Anderen
TTITLE8=Das letzte Lied
EXTD=
EXTT0=
EXTT1=
EXTT2=
EXTT3=
EXTT4=
EXTT5=
EXTT6=
EXTT7=
EXTT8=
PLAYORDER=
